<?xml version="1.0" encoding="UTF-8" standalone="no"?>
<!DOCTYPE svg PUBLIC "-//W3C//DTD SVG 1.1//EN" "http://www.w3.org/Graphics/SVG/1.1/DTD/svg11.dtd">
<svg version="1.1" xmlns="http://www.w3.org/2000/svg" xmlns:xlink="http://www.w3.org/1999/xlink" preserveAspectRatio="xMidYMid meet" viewBox="70.44864983201458 134.97532167695095 336.4002375515357 717.5643006988689" width="336.4" height="717.56"><defs><path d="M384.27 136.26C448.98 162.59 338.54 576.21 225.83 536.26C113.11 496.31 319.56 109.93 384.27 136.26Z" id="b1Fginu0rK"></path><path d="M202.46 758.19C252.45 639.24 257.64 570.46 218.03 551.85C178.42 533.23 145.52 564.4 119.33 645.35" id="aBYuZCIaK"></path><path d="M376.75 303.08C386.37 308.04 395.37 313.59 403.74 319.73C406.76 321.94 407.72 326.03 406 329.36C405.17 330.97 406.59 328.22 405.99 329.38C403.82 333.59 398.37 334.85 394.57 332.01C387.64 326.83 379.81 321.99 371.08 317.48C361.97 312.79 351.86 308.47 340.74 304.54C336.24 302.95 334.17 297.75 336.36 293.51C336.96 292.34 335.67 294.86 336.53 293.19C338.16 290.02 341.87 288.54 345.24 289.7C356.42 293.55 366.92 298.01 376.75 303.08Z" id="e1IzzkeJvy"></path><path d="M316.34 225.35C324.02 228.12 331.26 231.51 338.06 235.51C341.52 237.55 343.03 241.75 341.67 245.52C341.08 247.18 342.06 244.44 341.57 245.8C340.07 249.95 335.16 251.72 331.36 249.48C325.51 246.03 319.05 243.04 311.98 240.48C303.66 237.48 294.53 235.1 284.59 233.32C281.82 232.83 280.15 229.95 281.11 227.3C281.81 225.36 282.09 224.57 282.8 222.62C283.85 219.71 286.83 217.97 289.88 218.49C299.24 220.08 308.06 222.36 316.34 225.35Z" id="b7R5KAvWc1"></path><path d="M213.51 398.15C224.18 403.66 234.22 409.68 243.63 416.23C247.78 419.12 249.14 424.63 246.83 429.12C246.21 430.31 248.29 426.29 247.64 427.54C245.59 431.52 240.49 432.76 236.84 430.18C228.11 423.99 218.4 418.14 207.7 412.63C197 407.11 185.27 401.93 172.52 397.11C167.78 395.32 165.65 389.78 167.98 385.27C168.53 384.2 167.04 387.09 167.89 385.43C169.51 382.29 173.21 380.85 176.53 382.06C189.6 386.81 201.93 392.18 213.51 398.15Z" id="aJ4wjaB6O"></path><path d="M344.61 436.28C358.93 443.67 372.45 451.62 385.17 460.14C388.15 462.13 389.15 466.03 387.51 469.21C386.71 470.77 388.47 467.36 387.98 468.29C385.59 472.94 379.69 474.46 375.34 471.56C364.46 464.28 352.45 457.26 339.31 450.48C325.59 443.4 310.64 436.62 294.48 430.14C290 428.34 288.04 423.08 290.25 418.79C290.8 417.71 289.45 420.35 290.28 418.74C291.84 415.71 295.43 414.35 298.6 415.59C314.77 421.91 330.11 428.8 344.61 436.28Z" id="b9kQtJwrdm"></path><path d="M316.5 319.96C321.47 322.52 326.01 325.66 330.1 329.38C332.3 331.37 332.88 334.59 331.52 337.23C330.56 339.11 331.47 337.33 330.88 338.47C328.74 342.62 323.29 343.68 319.75 340.64C316.89 338.18 313.63 336.01 310 334.13C305.93 332.03 301.34 330.28 296.22 328.87C291.87 327.67 289.72 322.77 291.79 318.75C292.41 317.54 291.53 319.26 292.47 317.44C293.91 314.65 297.06 313.21 300.11 313.95C306.07 315.39 311.54 317.39 316.5 319.96Z" id="e1rSeQe6tP"></path><path d="M281.34 350.8C295.66 358.19 309.18 366.14 321.9 374.65C324.88 376.64 325.88 380.55 324.24 383.73C323.44 385.29 324.9 382.45 324.35 383.53C322.15 387.79 316.73 389.18 312.75 386.51C301.67 379.08 289.43 371.91 276.04 365C261.49 357.5 245.64 350.34 228.47 343.53C225.46 342.34 224.14 338.81 225.62 335.94C226.45 334.34 226.18 334.87 227.01 333.25C228.57 330.23 232.16 328.87 235.33 330.11C251.5 336.43 266.84 343.32 281.34 350.8Z" id="a1ahbD8O3S"></path><path d="M300.36 486.94C314.58 494.39 327.98 502.42 340.58 511.03C343.62 513.11 344.62 517.13 342.91 520.39C342.08 521.99 343.63 519.02 343.07 520.1C340.76 524.51 335.12 525.91 331.02 523.1C320.09 515.63 308 508.42 294.76 501.48C281.08 494.31 266.16 487.45 250.01 480.89C245.55 479.08 243.63 473.83 245.86 469.57C246.46 468.42 245.16 470.92 246.02 469.26C247.65 466.16 251.35 464.79 254.61 466.07C270.7 472.43 285.96 479.39 300.36 486.94Z" id="bgu5r90Yr"></path><path d="M376.15 203.36C381.21 205.66 385.9 208.47 390.22 211.81C393.85 214.61 395.08 219.54 393.18 223.71C392.45 225.31 394.11 221.66 393.54 222.93C391.49 227.43 385.8 228.86 381.87 225.86C378.35 223.17 374.4 220.83 370.01 218.83C365.64 216.85 360.76 215.22 355.37 213.93C349.84 212.61 346.89 206.57 349.24 201.4C349.71 200.37 348.56 202.9 349.52 200.78C350.73 198.12 353.6 196.64 356.47 197.19C363.57 198.58 370.13 200.63 376.15 203.36Z" id="a2wrcoomZW"></path><path d="M127.35 646.89C125.94 651.26 121.37 653.71 117.15 652.35C112.94 650.99 110.66 646.34 112.07 641.96C113.48 637.59 118.05 635.14 122.26 636.5C126.48 637.86 128.76 642.52 127.35 646.89Z" id="g6BEyzPclW"></path><path d="M216.94 600.01C208.15 626.91 199.02 652.85 189.57 677.86C180.11 702.86 170.33 726.92 160.21 750.04" id="ad8pXzwDJ"></path><path d="M169.23 648.12C154.66 683.27 139.82 717.2 124.69 749.93C109.56 782.65 94.14 814.17 78.44 844.48" id="b2rYsPKut5"></path><path d="M177.15 782.24C175.21 786.5 172.51 792.65 169.05 800.66C165.6 808.68 162.18 816.1 158.81 822.93" id="c17CXj9P44"></path><path d="M176.29 651.82C174.88 656.2 170.32 658.64 166.1 657.29C161.89 655.93 159.61 651.27 161.02 646.9C162.43 642.52 167 640.08 171.21 641.44C175.43 642.8 177.7 647.45 176.29 651.82Z" id="dYUGnNchy"></path><path d="M224.3 603.27C222.89 607.65 218.32 610.09 214.11 608.74C209.89 607.38 207.62 602.72 209.03 598.35C210.44 593.97 215 591.53 219.22 592.89C223.43 594.25 225.71 598.9 224.3 603.27Z" id="a1oOzDsA8C"></path><path d="M168.24 751.69C166.83 756.06 162.26 758.51 158.05 757.15C153.83 755.79 151.55 751.14 152.96 746.77C154.37 742.39 158.94 739.94 163.16 741.3C167.37 742.66 169.65 747.32 168.24 751.69Z" id="d1ipGQ8zN2"></path><path d="M210.53 759.49C209.12 763.86 204.56 766.31 200.34 764.95C196.13 763.59 193.85 758.93 195.26 754.56C196.67 750.19 201.24 747.74 205.45 749.1C209.67 750.46 211.94 755.11 210.53 759.49Z" id="cQUeG6CFz"></path><path d="M184.47 785.33C183.06 789.7 178.5 792.15 174.28 790.79C170.07 789.43 167.79 784.78 169.2 780.4C170.61 776.03 175.18 773.58 179.39 774.94C183.61 776.3 185.88 780.95 184.47 785.33Z" id="bivBNHGPZ"></path><path d="M166.69 825.01C165.28 829.39 160.72 831.84 156.5 830.48C152.29 829.12 150.01 824.46 151.42 820.09C152.83 815.72 157.4 813.27 161.61 814.63C165.83 815.99 168.1 820.64 166.69 825.01Z" id="b24mqdvCW5"></path><path d="M86.14 846.7C84.73 851.08 80.16 853.52 75.95 852.16C71.73 850.81 69.46 846.15 70.87 841.78C72.28 837.4 76.84 834.96 81.06 836.31C85.27 837.67 87.55 842.33 86.14 846.7Z" id="bcsrXOud4"></path></defs><g><g><g><g><use xlink:href="#b1Fginu0rK" opacity="1" fill-opacity="0" stroke="#d97926" stroke-width="16" stroke-opacity="1"></use></g></g><g><g><use xlink:href="#aBYuZCIaK" opacity="1" fill-opacity="0" stroke="#258112" stroke-width="16" stroke-opacity="1"></use></g></g><g><use xlink:href="#e1IzzkeJvy" opacity="1" fill="#d97926" fill-opacity="1"></use></g><g><use xlink:href="#b7R5KAvWc1" opacity="1" fill="#d97926" fill-opacity="1"></use></g><g><use xlink:href="#aJ4wjaB6O" opacity="1" fill="#d97926" fill-opacity="1"></use></g><g><use xlink:href="#b9kQtJwrdm" opacity="1" fill="#d97926" fill-opacity="1"></use></g><g><use xlink:href="#e1rSeQe6tP" opacity="1" fill="#d97926" fill-opacity="1"></use></g><g><use xlink:href="#a1ahbD8O3S" opacity="1" fill="#d97926" fill-opacity="1"></use></g><g><use xlink:href="#bgu5r90Yr" opacity="1" fill="#d97926" fill-opacity="1"></use></g><g><use xlink:href="#a2wrcoomZW" opacity="1" fill="#d97926" fill-opacity="1"></use></g><g><use xlink:href="#g6BEyzPclW" opacity="1" fill="#258112" fill-opacity="1"></use></g><g><g><use xlink:href="#ad8pXzwDJ" opacity="1" fill-opacity="0" stroke="#258112" stroke-width="16" stroke-opacity="1"></use></g></g><g><g><use xlink:href="#b2rYsPKut5" opacity="1" fill-opacity="0" stroke="#258112" stroke-width="16" stroke-opacity="1"></use></g></g><g><g><use xlink:href="#c17CXj9P44" opacity="1" fill-opacity="0" stroke="#258112" stroke-width="16" stroke-opacity="1"></use></g></g><g><use xlink:href="#dYUGnNchy" opacity="1" fill="#258112" fill-opacity="1"></use></g><g><use xlink:href="#a1oOzDsA8C" opacity="1" fill="#258112" fill-opacity="1"></use></g><g><use xlink:href="#d1ipGQ8zN2" opacity="1" fill="#258112" fill-opacity="1"></use></g><g><use xlink:href="#cQUeG6CFz" opacity="1" fill="#258112" fill-opacity="1"></use></g><g><use xlink:href="#bivBNHGPZ" opacity="1" fill="#258112" fill-opacity="1"></use></g><g><use xlink:href="#b24mqdvCW5" opacity="1" fill="#258112" fill-opacity="1"></use></g><g><use xlink:href="#bcsrXOud4" opacity="1" fill="#258112" fill-opacity="1"></use></g></g></g></svg>